<svg width="30" height="30" viewBox="0 0 30 30" fill="none" xmlns="http://www.w3.org/2000/svg">
<path d="M14.2481 0.00436534C11.8406 0.0334278 6.6647 0.429053 3.7697 3.08499C1.61626 5.21874 0.864384 8.37343 0.776259 12.2744C0.703134 16.1612 0.615008 23.4606 7.65095 25.4481V28.4753C7.65095 28.4753 7.60688 29.6866 8.40751 29.935C9.39376 30.2472 9.95532 29.3153 10.8928 28.3141L12.6413 26.3369C17.4553 26.7372 21.1425 25.8147 21.5672 25.6778C22.5441 25.3656 28.0463 24.6625 28.9453 17.3622C29.8678 9.8228 28.4963 5.07249 26.0203 2.92374H26.0053C25.2581 2.23562 22.2553 0.0474903 15.5466 0.0231153C15.5466 0.0231153 15.0488 -0.0106347 14.2481 0.00342784V0.00436534ZM14.3306 2.12405C15.0141 2.11937 15.4294 2.14843 15.4294 2.14843C21.1078 2.16343 23.8181 3.87249 24.4575 4.44812C26.5425 6.23499 27.6169 10.5175 26.8303 16.8119C26.0831 22.915 21.6206 23.3012 20.7947 23.5647C20.4431 23.6772 17.1956 24.4778 13.1044 24.2144C13.1044 24.2144 10.0575 27.8912 9.10501 28.8381C8.95407 29.0041 8.77782 29.0528 8.66532 29.0284C8.50407 28.9891 8.45532 28.7894 8.4647 28.5156L8.49376 23.4916C2.52657 21.8416 2.87813 15.6156 2.94188 12.3634C3.01501 9.11124 3.62532 6.45062 5.4422 4.64874C7.88813 2.43718 12.2831 2.13905 14.3288 2.12405H14.3306ZM14.7806 5.3753C14.7315 5.37481 14.6828 5.38404 14.6373 5.40246C14.5917 5.42089 14.5503 5.44814 14.5154 5.48265C14.4804 5.51716 14.4526 5.55825 14.4337 5.60354C14.4147 5.64883 14.4048 5.69744 14.4047 5.74655C14.4047 5.95655 14.5753 6.12249 14.7806 6.12249C15.7102 6.10481 16.634 6.27133 17.4989 6.61245C18.3637 6.95357 19.1525 7.46253 19.8197 8.10999C21.1819 9.4328 21.8456 11.2103 21.8709 13.5344C21.8709 13.7397 22.0369 13.9103 22.2469 13.9103V13.8953C22.3459 13.8956 22.4409 13.8567 22.5113 13.7871C22.5818 13.7176 22.6218 13.623 22.6228 13.5241C22.6683 12.4301 22.4909 11.3384 22.1014 10.3151C21.7119 9.29192 21.1183 8.35858 20.3569 7.57187C18.8728 6.12155 16.9922 5.37437 14.7806 5.37437V5.3753ZM9.83907 6.23499C9.57371 6.19622 9.30307 6.24948 9.0722 6.38593H9.05251C8.5165 6.70012 8.03365 7.09723 7.62188 7.56249C7.2797 7.95812 7.09407 8.35843 7.04532 8.74374C7.01626 8.97343 7.03595 9.20312 7.10438 9.42249L7.12876 9.43749C7.51407 10.57 8.01751 11.6594 8.63251 12.685C9.42472 14.1259 10.3997 15.4585 11.5331 16.6497L11.5669 16.6984L11.6203 16.7378L11.6541 16.7772L11.6934 16.8109C12.889 17.9477 14.2248 18.9272 15.6684 19.7256C17.3184 20.6237 18.3197 21.0484 18.9206 21.2247V21.2341C19.0969 21.2875 19.2572 21.3119 19.4184 21.3119C19.9306 21.2743 20.4154 21.0664 20.7956 20.7212C21.2588 20.3094 21.6515 19.8245 21.9581 19.2859V19.2766C22.2459 18.7347 22.1484 18.2219 21.7331 17.875C20.9014 17.148 20.002 16.5022 19.0472 15.9466C18.4078 15.5997 17.7581 15.8097 17.4947 16.1612L16.9331 16.8691C16.6453 17.2206 16.1222 17.1719 16.1222 17.1719L16.1072 17.1812C12.2063 16.1847 11.1656 12.235 11.1656 12.235C11.1656 12.235 11.1169 11.6978 11.4778 11.4241L12.1809 10.8578C12.5175 10.5841 12.7519 9.9353 12.3909 9.29499C11.8391 8.33888 11.1948 7.43926 10.4672 6.60905C10.3081 6.41333 10.085 6.28017 9.8372 6.23312L9.83907 6.23499ZM15.4294 7.34874C14.9316 7.34874 14.9316 8.10062 15.4341 8.10062C16.0531 8.11066 16.6641 8.24259 17.2321 8.48887C17.8001 8.73514 18.314 9.09094 18.7444 9.53593C19.137 9.96906 19.4388 10.4766 19.6317 11.0285C19.8246 11.5803 19.9048 12.1653 19.8675 12.7487C19.8692 12.8475 19.9095 12.9416 19.9798 13.011C20.0501 13.0804 20.1447 13.1195 20.2434 13.12L20.2584 13.1397C20.3579 13.1389 20.4531 13.0991 20.5235 13.0288C20.5938 12.9584 20.6336 12.8632 20.6344 12.7637C20.6681 11.2741 20.205 10.0244 19.2966 9.02312C18.3834 8.02187 17.1094 7.4603 15.4828 7.34874H15.4294V7.34874ZM16.0453 9.36999C15.5325 9.35499 15.5128 10.1219 16.0209 10.1369C17.2566 10.2006 17.8566 10.825 17.9353 12.1094C17.937 12.2069 17.9768 12.2998 18.0462 12.3683C18.1156 12.4368 18.2091 12.4755 18.3066 12.4759H18.3216C18.3717 12.4738 18.4209 12.4617 18.4663 12.4403C18.5117 12.4189 18.5524 12.3887 18.586 12.3515C18.6196 12.3142 18.6454 12.2706 18.662 12.2232C18.6786 12.1759 18.6855 12.1257 18.6825 12.0756C18.5944 10.4012 17.6813 9.45812 16.0603 9.37093H16.0453V9.36999Z" fill="#C4C4C4"/>
</svg>
