<svg width="20" height="21" viewBox="0 0 20 21" fill="none" xmlns="http://www.w3.org/2000/svg">
<path d="M15.4444 4.1H14.6667V3.3C14.6667 2.86 14.3167 2.5 13.8889 2.5C13.4611 2.5 13.1111 2.86 13.1111 3.3V4.1H6.88889V3.3C6.88889 2.86 6.53889 2.5 6.11111 2.5C5.68333 2.5 5.33333 2.86 5.33333 3.3V4.1H4.55556C3.69222 4.1 3.00778 4.82 3.00778 5.7L3 16.9C3 17.3243 3.16389 17.7313 3.45561 18.0314C3.74733 18.3314 4.143 18.5 4.55556 18.5H15.4444C16.3 18.5 17 17.78 17 16.9V5.7C17 4.82 16.3 4.1 15.4444 4.1ZM15.4444 16.1C15.4444 16.54 15.0944 16.9 14.6667 16.9H5.33333C4.90556 16.9 4.55556 16.54 4.55556 16.1V8.1H15.4444V16.1ZM6.11111 9.7H7.66667V11.3H6.11111V9.7ZM9.22222 9.7H10.7778V11.3H9.22222V9.7ZM12.3333 9.7H13.8889V11.3H12.3333V9.7Z" fill="#C4C4C4"/>
</svg>
