<svg width="30" height="30" viewBox="0 0 30 30" fill="none" xmlns="http://www.w3.org/2000/svg">
<path d="M28.9382 17.4621C28.9287 17.5148 28.922 17.5682 28.912 17.6209L28.8607 17.3187C28.8888 17.3658 28.912 17.4148 28.9382 17.4622C29.0944 16.6152 29.1734 15.7557 29.1743 14.8943C29.1743 12.982 28.7999 11.1267 28.0602 9.38027C27.3465 7.69324 26.3256 6.17812 25.0239 4.87734C23.724 3.57656 22.2079 2.55551 20.5218 1.84195C18.7758 1.1032 16.9206 0.728789 15.0083 0.728789C14.1071 0.728789 13.2043 0.813398 12.3259 0.982031C12.324 0.9825 12.3217 0.9825 12.3192 0.982969C12.3687 1.0091 12.4186 1.03242 12.467 1.05949L12.1691 1.01285C12.219 1.00348 12.2694 0.99293 12.3192 0.982969C11.1141 0.342187 9.75844 0 8.38641 0C6.14648 0 4.04027 0.872227 2.45625 2.45672C0.872695 4.04074 0 6.14684 0 8.38687C0.00076041 9.8098 0.363891 11.2091 1.05516 12.4528C1.06418 12.4015 1.07039 12.3497 1.08035 12.2984L1.13168 12.5953C1.10508 12.5488 1.08176 12.5003 1.05516 12.4528C0.914165 13.259 0.842808 14.0759 0.841875 14.8943C0.841875 16.807 1.21629 18.6619 1.95598 20.4088C2.66859 22.0963 3.69012 23.6103 4.99043 24.9111C6.29215 26.212 7.80633 27.2345 9.4943 27.9462C11.2404 28.6863 13.0961 29.0612 15.0083 29.0612C15.8407 29.0612 16.675 28.9852 17.4892 28.8408C17.4417 28.8142 17.3933 28.7899 17.3448 28.7619L17.6475 28.8151C17.5952 28.8251 17.5425 28.8313 17.4893 28.8408C18.7477 29.553 20.169 29.9275 21.615 29.9278C23.8546 29.9278 25.9597 29.0569 27.5437 27.472C29.1281 25.8889 30 23.7824 30 21.5423C29.9992 20.1141 29.6337 18.7097 28.9382 17.4622V17.4621ZM15.0648 23.57C10.0322 23.57 7.78066 21.0957 7.78066 19.2415C7.78066 18.2903 8.48285 17.6237 9.45059 17.6237C11.6043 17.6237 11.0464 20.7162 15.0648 20.7162C17.122 20.7162 18.2579 19.5991 18.2579 18.4561C18.2579 17.7687 17.9188 17.0065 16.5642 16.6725L12.0879 15.5551C8.48285 14.651 7.82859 12.7022 7.82859 10.8702C7.82859 7.06664 11.4098 5.63848 14.7731 5.63848C17.8712 5.63848 21.5234 7.3507 21.5234 9.63258C21.5234 10.6104 20.6767 11.179 19.7093 11.179C17.8712 11.179 18.2095 8.63484 14.5071 8.63484C12.6698 8.63484 11.6522 9.46687 11.6522 10.6574C11.6522 11.8457 13.1032 12.2252 14.3631 12.5121L17.6764 13.2476C21.3057 14.0562 22.226 16.1752 22.226 18.171C22.226 21.262 19.8533 23.57 15.0648 23.57ZM17.3448 28.7619C17.3933 28.79 17.4417 28.8142 17.4893 28.8408C17.5425 28.8313 17.5952 28.8251 17.6475 28.815L17.3448 28.7619ZM28.912 17.6209C28.922 17.5682 28.9287 17.515 28.9382 17.4622C28.912 17.4146 28.8887 17.3658 28.8608 17.3187L28.912 17.6209ZM1.08035 12.2984C1.07039 12.3497 1.06418 12.4015 1.05516 12.4528C1.08176 12.5003 1.10508 12.5488 1.13168 12.5953L1.08035 12.2984ZM12.467 1.05949C12.4186 1.03242 12.3687 1.0091 12.3193 0.982969C12.2694 0.99293 12.219 1.00336 12.1691 1.01285L12.467 1.05949Z" fill="#C4C4C4"/>
</svg>
