<svg width="180" height="180" viewBox="0 0 180 180" fill="none" xmlns="http://www.w3.org/2000/svg">
<rect width="180" height="180" rx="90" fill="white"/>
<path fill-rule="evenodd" clip-rule="evenodd" d="M89.1832 91.0762L62.5002 117.774C62.5002 117.774 68.6412 123.495 76.9012 115.232L88.3362 103.789L85.7942 101.246L92.5712 94.4662L89.1832 91.0762Z" fill="#88FCE6"/>
<path fill-rule="evenodd" clip-rule="evenodd" d="M64.9242 119.203C64.9242 119.203 64.9242 119.203 64.9232 119.203C61.0262 119.202 58.5802 116.967 58.4792 116.872C58.1802 116.594 58.0082 116.207 58.0002 115.801C57.9932 115.393 58.1522 115.001 58.4402 114.712L85.1222 88.0131C85.6852 87.4501 86.6812 87.4501 87.2432 88.0131L90.6322 91.4041C90.9132 91.6851 91.0712 92.0671 91.0712 92.4651C91.0712 92.8631 90.9132 93.2451 90.6322 93.5261L84.9162 99.2451L86.3972 100.727C86.6782 101.008 86.8362 101.389 86.8362 101.788C86.8362 102.186 86.6782 102.568 86.3972 102.849L74.9612 114.291C71.7042 117.551 68.3272 119.203 64.9242 119.203ZM61.8782 115.516C62.6332 115.87 63.6732 116.201 64.9242 116.201C67.5022 116.201 70.1652 114.844 72.8402 112.169L83.2152 101.788L81.7342 100.306C81.4522 100.025 81.2942 99.6441 81.2942 99.2451C81.2942 98.8481 81.4522 98.4661 81.7342 98.1841L87.4502 92.4651L86.1832 91.1971L61.8782 115.516Z" fill="#100227"/>
<path fill-rule="evenodd" clip-rule="evenodd" d="M95.1722 97.009L89.2422 91.076L115.922 64.381C117.093 63.209 118.993 63.209 120.164 64.381L121.852 66.069C123.023 67.241 123.023 69.141 121.852 70.314L95.1722 97.009Z" fill="#E56A77"/>
<path fill-rule="evenodd" clip-rule="evenodd" d="M92.1722 96.508C91.7882 96.508 91.4042 96.362 91.1122 96.069L85.1822 90.136C84.5962 89.549 84.5962 88.6 85.1822 88.013L111.862 61.318C112.711 60.468 113.841 60 115.043 60C116.245 60 117.375 60.468 118.225 61.318L119.912 63.007C121.666 64.762 121.666 67.619 119.912 69.374L93.2332 96.069C92.9402 96.362 92.5562 96.508 92.1722 96.508ZM88.3632 89.074L92.1722 92.885L117.791 67.251C118.375 66.666 118.375 65.714 117.79 65.129L116.104 63.44C115.537 62.874 114.549 62.874 113.983 63.44L88.3632 89.074Z" fill="#100227"/>
</svg>
