<svg width="180" height="180" viewBox="0 0 180 180" fill="none" xmlns="http://www.w3.org/2000/svg">
<rect width="180" height="180" rx="90" fill="white"/>
<path fill-rule="evenodd" clip-rule="evenodd" d="M123.321 92.4068C123.321 109.023 109.849 122.492 93.231 122.492C76.613 122.492 63.141 109.023 63.141 92.4068C63.141 75.7908 76.613 62.3208 93.231 62.3208C109.849 62.3208 123.321 75.7908 123.321 92.4068Z" fill="#EDC951"/>
<path fill-rule="evenodd" clip-rule="evenodd" d="M109.644 99.8149C109.644 106.814 104.171 111.813 97.418 111.813H91.305C84.553 111.813 79.079 106.814 79.079 99.8149H109.644Z" fill="#8B71B5"/>
<path fill-rule="evenodd" clip-rule="evenodd" d="M109.836 78.6011C108.889 78.6011 108.017 79.7771 107.312 80.3021C106.606 79.7771 105.735 78.6011 104.787 78.6011C102.447 78.6011 100.55 80.4981 100.55 82.8381C100.55 85.1781 106.606 92.0871 107.312 91.5621C108.017 92.0871 114.073 85.1781 114.073 82.8381C114.073 80.4981 112.176 78.6011 109.836 78.6011Z" fill="#E56A77"/>
<path fill-rule="evenodd" clip-rule="evenodd" d="M85.747 78.6011C84.8 78.6011 83.929 79.7771 83.223 80.3021C82.517 79.7771 81.646 78.6011 80.699 78.6011C78.358 78.6011 76.461 80.4981 76.461 82.8381C76.461 85.1781 82.517 92.0871 83.223 91.5621C83.929 92.0871 89.984 85.1781 89.984 82.8381C89.984 80.4981 88.087 78.6011 85.747 78.6011Z" fill="#E56A77"/>
<path fill-rule="evenodd" clip-rule="evenodd" d="M90.836 109.813H84.723C77.155 109.813 70.997 104.207 70.997 97.3149C70.997 96.4859 71.669 95.8149 72.497 95.8149H103.062C103.891 95.8149 104.562 96.4859 104.562 97.3149C104.562 104.207 98.405 109.813 90.836 109.813ZM74.131 98.8149C74.945 103.342 79.385 106.814 84.723 106.814H90.836C96.175 106.814 100.615 103.342 101.429 98.8149H74.131Z" fill="#100227"/>
<path fill-rule="evenodd" clip-rule="evenodd" d="M100.838 90.2698C100.8 90.2708 100.765 90.2688 100.73 90.2668C100.698 90.2688 100.665 90.2698 100.632 90.2698C100.196 90.2698 99.037 90.2698 95.741 86.1798C94.248 84.3258 92.468 81.7518 92.468 80.0168C92.468 76.8538 95.042 74.2798 98.205 74.2798C99.255 74.2798 100.083 74.8878 100.73 75.4658C101.376 74.8878 102.204 74.2798 103.254 74.2798C106.417 74.2798 108.991 76.8538 108.991 80.0168C108.991 81.7518 107.211 84.3258 105.718 86.1798C102.45 90.2368 101.283 90.2698 100.838 90.2698ZM98.143 77.2738C96.696 77.2798 95.468 78.5078 95.468 80.0168C95.514 81.2648 99.157 85.9418 100.73 87.1418C102.303 85.9418 105.945 81.2638 105.991 80.0138C105.991 78.5078 104.763 77.2798 103.254 77.2798C103.117 77.3308 102.65 77.7718 102.399 78.0098C102.127 78.2648 101.867 78.5058 101.625 78.6848C101.094 79.0798 100.366 79.0808 99.835 78.6848C99.593 78.5058 99.332 78.2648 99.06 78.0088C98.809 77.7718 98.342 77.3308 98.143 77.2738Z" fill="#100227"/>
<path fill-rule="evenodd" clip-rule="evenodd" d="M76.749 90.2698C76.712 90.2708 76.677 90.2688 76.641 90.2668C76.609 90.2688 76.576 90.2698 76.543 90.2698C76.107 90.2698 74.948 90.2698 71.653 86.1798C70.159 84.3258 68.379 81.7518 68.379 80.0168C68.379 76.8538 70.953 74.2798 74.117 74.2798C75.166 74.2798 75.994 74.8878 76.641 75.4658C77.287 74.8868 78.116 74.2798 79.165 74.2798C82.328 74.2798 84.902 76.8538 84.902 80.0168C84.902 81.7518 83.122 84.3258 81.629 86.1798C78.361 90.2368 77.194 90.2698 76.749 90.2698ZM74.054 77.2738C72.607 77.2798 71.379 78.5078 71.379 80.0168C71.426 81.2648 75.068 85.9418 76.641 87.1418C78.214 85.9418 81.856 81.2638 81.902 80.0138C81.902 78.5078 80.674 77.2798 79.165 77.2798C79.029 77.3308 78.561 77.7718 78.31 78.0098C78.038 78.2648 77.778 78.5058 77.536 78.6848C77.005 79.0798 76.278 79.0808 75.746 78.6848C75.504 78.5058 75.243 78.2648 74.972 78.0088C74.72 77.7718 74.253 77.3308 74.054 77.2738Z" fill="#100227"/>
<path fill-rule="evenodd" clip-rule="evenodd" d="M87.589 121.172C70.171 121.172 56 107.003 56 89.586C56 72.17 70.171 58 87.589 58C105.008 58 119.179 72.17 119.179 89.586C119.179 107.003 105.008 121.172 87.589 121.172ZM87.589 61C71.825 61 59 73.824 59 89.586C59 105.349 71.825 118.172 87.589 118.172C103.353 118.172 116.179 105.349 116.179 89.586C116.179 73.824 103.353 61 87.589 61Z" fill="#100227"/>
</svg>
