<svg width="370" height="370" viewBox="0 0 370 370" fill="none" xmlns="http://www.w3.org/2000/svg">
<rect width="370" height="370" rx="5" fill="#F2F8F6"/>
<path fill-rule="evenodd" clip-rule="evenodd" d="M199.97 153.564C200.704 151.484 202.11 148.27 202.11 145.936C202.11 134.928 193.194 126.004 182.194 126.004C171.194 126.004 162.276 134.928 162.276 145.936C162.276 148.27 163.68 151.484 164.416 153.564L180.046 184.794C180.92 186.538 183.408 186.54 184.282 184.796L199.97 153.564Z" fill="#E56A77"/>
<path fill-rule="evenodd" clip-rule="evenodd" d="M186.498 136.504C190.128 138.148 192.654 141.804 192.654 146.05C192.654 151.832 187.97 156.518 182.194 156.518C176.414 156.518 171.73 151.832 171.73 146.05C171.73 141.86 174.192 138.244 177.746 136.57" fill="#EDC951"/>
<path fill-rule="evenodd" clip-rule="evenodd" d="M245.522 238.204C245.522 243.668 241.096 248.096 235.636 248.096C230.178 248.096 225.752 243.668 225.752 238.204C225.752 232.742 230.178 228.312 235.636 228.312C241.096 228.312 245.522 232.742 245.522 238.204Z" fill="#EDC951"/>
<path fill-rule="evenodd" clip-rule="evenodd" d="M191.666 218.234C191.666 223.696 187.24 228.126 181.78 228.126C176.322 228.126 171.898 223.696 171.898 218.234C171.898 212.77 176.322 208.342 181.78 208.342C187.24 208.342 191.666 212.77 191.666 218.234Z" fill="#EDC951"/>
<path fill-rule="evenodd" clip-rule="evenodd" d="M153.77 236.198C153.77 241.66 149.344 246.088 143.884 246.088C138.426 246.088 134 241.66 134 236.198C134 230.734 138.426 226.306 143.884 226.306C149.344 226.306 153.77 230.734 153.77 236.198Z" fill="#EDC951"/>
<path fill-rule="evenodd" clip-rule="evenodd" d="M176.166 187.104C174.12 187.102 172.282 185.966 171.364 184.136L155.734 152.908C155.678 152.796 155.628 152.682 155.588 152.564C155.458 152.198 155.306 151.794 155.144 151.364C154.312 149.146 153.276 146.382 153.276 143.934C153.276 131.288 163.556 121 176.192 121C188.83 121 199.112 131.288 199.112 143.934C199.112 146.378 198.078 149.132 197.248 151.348C197.084 151.782 196.93 152.19 196.798 152.562C196.758 152.682 196.706 152.798 196.65 152.91L180.962 184.142C180.046 185.97 178.208 187.104 176.166 187.104ZM161.18 150.38L176.166 180.324L191.206 150.38C191.334 150.024 191.478 149.64 191.63 149.238C192.256 147.57 193.11 145.288 193.11 143.934C193.11 134.6 185.522 127.004 176.192 127.004C166.864 127.004 159.276 134.6 159.276 143.934C159.276 145.294 160.134 147.582 160.762 149.254C160.912 149.652 161.052 150.03 161.18 150.38Z" fill="#100227"/>
<path fill-rule="evenodd" clip-rule="evenodd" d="M176.192 157.52C168.77 157.52 162.73 151.476 162.73 144.048C162.73 138.852 165.768 134.064 170.468 131.852C171.974 131.146 173.756 131.792 174.46 133.292C175.166 134.792 174.522 136.58 173.024 137.286C170.416 138.512 168.73 141.168 168.73 144.048C168.73 148.166 172.078 151.516 176.192 151.516C180.306 151.516 183.654 148.166 183.654 144.048C183.654 141.118 181.93 138.446 179.262 137.238C177.752 136.556 177.082 134.778 177.764 133.266C178.446 131.758 180.218 131.084 181.734 131.768C186.544 133.944 189.654 138.764 189.654 144.048C189.654 151.476 183.614 157.52 176.192 157.52Z" fill="#100227"/>
<path fill-rule="evenodd" clip-rule="evenodd" d="M229.636 249.096C222.53 249.096 216.752 243.312 216.752 236.204C216.752 229.094 222.53 223.31 229.636 223.31C236.742 223.31 242.522 229.094 242.522 236.204C242.522 243.312 236.742 249.096 229.636 249.096ZM229.636 229.314C225.84 229.314 222.752 232.404 222.752 236.204C222.752 240.002 225.84 243.092 229.636 243.092C233.434 243.092 236.522 240.002 236.522 236.204C236.522 232.404 233.434 229.314 229.636 229.314Z" fill="#100227"/>
<path fill-rule="evenodd" clip-rule="evenodd" d="M175.78 229.126C168.678 229.126 162.898 223.342 162.898 216.232C162.898 209.122 168.678 203.338 175.78 203.338C182.886 203.338 188.666 209.122 188.666 216.232C188.666 223.342 182.886 229.126 175.78 229.126ZM175.78 209.342C171.986 209.342 168.898 212.434 168.898 216.232C168.898 220.03 171.986 223.122 175.78 223.122C179.578 223.122 182.666 220.03 182.666 216.232C182.666 212.434 179.578 209.342 175.78 209.342Z" fill="#100227"/>
<path fill-rule="evenodd" clip-rule="evenodd" d="M137.884 247.09C130.78 247.09 125 241.306 125 234.196C125 227.086 130.78 221.304 137.884 221.304C144.99 221.304 150.77 227.086 150.77 234.196C150.77 241.306 144.99 247.09 137.884 247.09ZM137.884 227.308C134.088 227.308 131 230.398 131 234.196C131 237.994 134.088 241.086 137.884 241.086C141.682 241.086 144.77 237.994 144.77 234.196C144.77 230.398 141.682 227.308 137.884 227.308Z" fill="#100227"/>
<path fill-rule="evenodd" clip-rule="evenodd" d="M146.326 232.07C145.208 232.07 144.134 231.442 143.618 230.366C142.902 228.87 143.532 227.078 145.028 226.36L165.134 216.71C166.624 215.994 168.42 216.622 169.136 218.12C169.854 219.614 169.222 221.408 167.728 222.124L147.62 231.774C147.202 231.976 146.762 232.07 146.326 232.07Z" fill="#100227"/>
<path fill-rule="evenodd" clip-rule="evenodd" d="M220.258 236.074C219.87 236.074 219.476 235.998 219.098 235.838L184.256 221.176C182.728 220.534 182.01 218.774 182.652 217.246C183.294 215.718 185.052 214.998 186.58 215.642L221.422 230.302C222.948 230.946 223.668 232.706 223.026 234.234C222.542 235.382 221.43 236.074 220.258 236.074Z" fill="#100227"/>
<path fill-rule="evenodd" clip-rule="evenodd" d="M175.782 209.802C175.748 209.802 175.714 209.802 175.68 209.802C174.026 209.802 172.726 208.126 172.782 206.47L173.196 194.092C173.252 192.434 174.688 191.082 176.294 191.136C177.948 191.19 179.248 192.55 179.192 194.208L178.778 206.686C178.724 208.308 177.392 209.802 175.782 209.802Z" fill="#100227"/>
</svg>
