<svg width="370" height="370" viewBox="0 0 370 370" fill="none" xmlns="http://www.w3.org/2000/svg">
<rect width="370" height="370" rx="5" fill="#F2F8F6"/>
<path fill-rule="evenodd" clip-rule="evenodd" d="M242.072 198.308C242.072 226.524 219.222 249.398 191.036 249.398C162.848 249.398 140 226.524 140 198.308C140 170.092 162.848 147.218 191.036 147.218C219.222 147.218 242.072 170.092 242.072 198.308Z" fill="#FD9366"/>
<path fill-rule="evenodd" clip-rule="evenodd" d="M219.89 198.308C219.89 214.26 206.97 227.192 191.036 227.192C175.1 227.192 162.182 214.26 162.182 198.308C162.182 182.356 175.1 169.424 191.036 169.424C206.97 169.424 219.89 182.356 219.89 198.308Z" fill="#88FCE6"/>
<path fill-rule="evenodd" clip-rule="evenodd" d="M178.096 129.01H200.096V147.028H178.096V129.01Z" fill="#EDC951"/>
<path fill-rule="evenodd" clip-rule="evenodd" d="M183.036 246.394C153.24 246.394 129 222.128 129 192.302C129 162.474 153.24 138.21 183.036 138.21C212.832 138.21 237.072 162.474 237.072 192.302C237.072 222.128 212.832 246.394 183.036 246.394ZM183.036 144.216C156.548 144.216 135 165.786 135 192.302C135 218.816 156.548 240.388 183.036 240.388C209.522 240.388 231.072 218.816 231.072 192.302C231.072 165.786 209.522 144.216 183.036 144.216Z" fill="#100227"/>
<path fill-rule="evenodd" clip-rule="evenodd" d="M183.036 224.19C165.472 224.19 151.182 209.886 151.182 192.302C151.182 174.72 165.472 160.414 183.036 160.414C200.6 160.414 214.89 174.72 214.89 192.302C214.89 209.886 200.6 224.19 183.036 224.19ZM183.036 166.42C168.78 166.42 157.182 178.032 157.182 192.302C157.182 206.574 168.78 218.184 183.036 218.184C197.292 218.184 208.89 206.574 208.89 192.302C208.89 178.032 197.292 166.42 183.036 166.42Z" fill="#100227"/>
<path fill-rule="evenodd" clip-rule="evenodd" d="M193.096 143.024H171.096C169.44 143.024 168.096 141.68 168.096 140.022V122.002C168.096 120.344 169.44 119 171.096 119H193.096C194.754 119 196.096 120.344 196.096 122.002V140.022C196.096 141.68 194.754 143.024 193.096 143.024ZM174.096 137.018H190.096V125.006H174.096V137.018Z" fill="#100227"/>
<path fill-rule="evenodd" clip-rule="evenodd" d="M196.204 204.764C195.716 204.764 195.218 204.646 194.76 204.394L179.65 196.066C178.692 195.538 178.096 194.53 178.096 193.434V179.062C178.096 177.404 179.44 176.06 181.096 176.06C182.754 176.06 184.096 177.404 184.096 179.062V191.66L197.654 199.13C199.106 199.932 199.634 201.758 198.836 203.21C198.29 204.204 197.262 204.764 196.204 204.764Z" fill="#100227"/>
</svg>
