<svg width="370" height="370" viewBox="0 0 370 370" fill="none" xmlns="http://www.w3.org/2000/svg">
<rect width="370" height="370" rx="5" fill="#F2F8F6"/>
<path fill-rule="evenodd" clip-rule="evenodd" d="M139.8 218.342C135.468 217.748 131 213.402 131 208.902V157.01C131 152.588 134.582 149.004 139 149.004H222.182C225.928 149.004 229.274 150.172 230.544 153.698L237.118 171.354C237.842 173.364 239.266 174.75 241.126 175.796L246.844 179.074C249.646 180.648 251 183.466 251 186.682V211.048C251 215.47 247.418 219.054 243 219.054H239" fill="#99746A"/>
<path fill-rule="evenodd" clip-rule="evenodd" d="M234.318 218.724C234.318 223.802 230.204 227.918 225.13 227.918C220.054 227.918 215.942 223.802 215.942 218.724C215.942 213.646 220.054 209.53 225.13 209.53C230.204 209.53 234.318 213.646 234.318 218.724Z" fill="#E56A77"/>
<path fill-rule="evenodd" clip-rule="evenodd" d="M156.54 218.724C156.54 223.802 152.426 227.918 147.352 227.918C142.278 227.918 138.164 223.802 138.164 218.724C138.164 213.646 142.278 209.53 147.352 209.53C152.426 209.53 156.54 213.646 156.54 218.724Z" fill="#E56A77"/>
<path fill-rule="evenodd" clip-rule="evenodd" d="M247 201.042H209V177.024H230.26C239.096 177.024 247 183.266 247 192.108V201.042Z" fill="#EDC951"/>
<path fill-rule="evenodd" clip-rule="evenodd" d="M207 219.054H151C149.342 219.054 148 217.71 148 216.052C148 214.394 149.342 213.05 151 213.05H207C208.658 213.05 210 214.394 210 216.052C210 217.71 208.658 219.054 207 219.054Z" fill="#100227"/>
<path fill-rule="evenodd" clip-rule="evenodd" d="M236 219.054H231C229.342 219.054 228 217.71 228 216.052C228 214.394 229.342 213.05 231 213.05H236C238.756 213.05 241 210.804 241 208.046V184.68C241 182.648 239.802 180.712 237.874 179.628L231.708 176.314C229.08 174.838 227.226 172.706 226.296 170.118L219.728 152.232C218.678 149.318 215.5 149.004 214.182 149.004H132C129.244 149.004 127 151.25 127 154.008V206.9C127 210.002 129.952 212.488 132.708 212.866C134.35 213.092 135.498 214.606 135.274 216.25C135.048 217.892 133.532 219.042 131.894 218.816C125.886 217.992 121 212.648 121 206.9V154.008C121 147.938 125.934 143 132 143H214.182C219.566 143 223.746 145.684 225.366 150.18L231.934 168.066C232.382 169.31 233.276 170.31 234.596 171.052L240.762 174.366C244.628 176.538 247 180.48 247 184.68V208.046C247 214.116 242.066 219.054 236 219.054Z" fill="#100227"/>
<path fill-rule="evenodd" clip-rule="evenodd" d="M219.13 228.92C212.41 228.92 206.942 223.448 206.942 216.722C206.942 209.998 212.41 204.526 219.13 204.526C225.85 204.526 231.318 209.998 231.318 216.722C231.318 223.448 225.85 228.92 219.13 228.92ZM219.13 210.53C215.718 210.53 212.942 213.308 212.942 216.722C212.942 220.138 215.718 222.916 219.13 222.916C222.542 222.916 225.318 220.138 225.318 216.722C225.318 213.308 222.542 210.53 219.13 210.53Z" fill="#100227"/>
<path fill-rule="evenodd" clip-rule="evenodd" d="M141.352 228.92C134.63 228.92 129.162 223.448 129.162 216.722C129.162 209.998 134.63 204.526 141.352 204.526C148.072 204.526 153.54 209.998 153.54 216.722C153.54 223.448 148.072 228.92 141.352 228.92ZM141.352 210.53C137.94 210.53 135.164 213.308 135.164 216.722C135.164 220.138 137.94 222.916 141.352 222.916C144.764 222.916 147.54 220.138 147.54 216.722C147.54 213.308 144.764 210.53 141.352 210.53Z" fill="#100227"/>
<path fill-rule="evenodd" clip-rule="evenodd" d="M202 200.04C200.342 200.04 199 198.696 199 197.038V147.002C199 145.344 200.342 144 202 144C203.658 144 205 145.344 205 147.002V197.038C205 198.696 203.658 200.04 202 200.04Z" fill="#100227"/>
<path fill-rule="evenodd" clip-rule="evenodd" d="M243 201.042H125C123.342 201.042 122 199.698 122 198.04C122 196.38 123.342 195.036 125 195.036H243C244.658 195.036 246 196.38 246 198.04C246 199.698 244.658 201.042 243 201.042Z" fill="#100227"/>
<path fill-rule="evenodd" clip-rule="evenodd" d="M233 177.024H203C201.342 177.024 200 175.68 200 174.022C200 172.364 201.342 171.02 203 171.02H233C234.658 171.02 236 172.364 236 174.022C236 175.68 234.658 177.024 233 177.024Z" fill="#100227"/>
</svg>
