<svg width="160" height="160" viewBox="0 0 160 160" fill="none" xmlns="http://www.w3.org/2000/svg">
<circle cx="80" cy="80" r="80" fill="#F2F8F6"/>
<circle cx="20" cy="20" r="20" fill="#100227"/>
<path d="M18.6469 19.84C19.6389 19.84 20.5669 19.76 21.4309 19.6C22.2949 19.424 23.0469 19.16 23.6869 18.808C24.3429 18.456 24.8549 18.008 25.2229 17.464C25.5909 16.904 25.7749 16.256 25.7749 15.52C25.7749 14.672 25.5429 13.896 25.0789 13.192C24.6149 12.488 23.9429 11.928 23.0629 11.512C22.1829 11.096 21.1109 10.888 19.8469 10.888C18.6469 10.888 17.5989 11.12 16.7029 11.584C15.8229 12.048 15.1349 12.672 14.6389 13.456C14.1589 14.224 13.9189 15.112 13.9189 16.12H17.6629C17.6629 15.736 17.7589 15.392 17.9509 15.088C18.1429 14.784 18.3989 14.552 18.7189 14.392C19.0549 14.216 19.4389 14.128 19.8709 14.128C20.2869 14.128 20.6309 14.2 20.9029 14.344C21.1909 14.488 21.3989 14.688 21.5269 14.944C21.6709 15.184 21.7429 15.472 21.7429 15.808C21.7429 16.112 21.6709 16.4 21.5269 16.672C21.3829 16.928 21.1749 17.16 20.9029 17.368C20.6309 17.576 20.3029 17.744 19.9189 17.872C19.5349 17.984 19.1109 18.04 18.6469 18.04V19.84ZM19.6549 28.36C21.0309 28.36 22.2069 28.152 23.1829 27.736C24.1749 27.32 24.9349 26.744 25.4629 26.008C25.9909 25.256 26.2549 24.392 26.2549 23.416C26.2549 22.552 26.0629 21.816 25.6789 21.208C25.3109 20.6 24.7909 20.104 24.1189 19.72C23.4469 19.336 22.6389 19.056 21.6949 18.88C20.7669 18.688 19.7509 18.592 18.6469 18.592V20.656C19.2549 20.656 19.7829 20.712 20.2309 20.824C20.6949 20.936 21.0709 21.096 21.3589 21.304C21.6469 21.512 21.8629 21.76 22.0069 22.048C22.1509 22.336 22.2229 22.656 22.2229 23.008C22.2229 23.488 22.1189 23.88 21.9109 24.184C21.7189 24.488 21.4389 24.72 21.0709 24.88C20.7029 25.04 20.2869 25.12 19.8229 25.12C19.3589 25.12 18.9269 25.032 18.5269 24.856C18.1269 24.68 17.8069 24.408 17.5669 24.04C17.3269 23.672 17.2069 23.208 17.2069 22.648H13.1989C13.1989 23.416 13.3349 24.144 13.6069 24.832C13.8949 25.504 14.3189 26.112 14.8789 26.656C15.4549 27.184 16.1429 27.6 16.9429 27.904C17.7429 28.208 18.6469 28.36 19.6549 28.36Z" fill="white"/>
<path fill-rule="evenodd" clip-rule="evenodd" d="M109.296 99.6392H112.296V89.6392H67.141L69.061 99.6392H72.296" fill="#8B71B5"/>
<path fill-rule="evenodd" clip-rule="evenodd" d="M67.141 89.6392H103.628L113.23 69.6392H62.241L67.141 89.6392Z" fill="#E56A77"/>
<path fill-rule="evenodd" clip-rule="evenodd" d="M108.141 100.679C108.141 103.861 105.562 106.44 102.38 106.44C99.198 106.44 96.619 103.861 96.619 100.679C96.619 97.497 99.198 94.918 102.38 94.918C105.562 94.918 108.141 97.497 108.141 100.679Z" fill="#EDC951"/>
<path fill-rule="evenodd" clip-rule="evenodd" d="M85.049 100.679C85.049 103.861 82.47 106.44 79.287 106.44C76.106 106.44 73.526 103.861 73.526 100.679C73.526 97.497 76.106 94.918 79.287 94.918C82.47 94.918 85.049 97.497 85.049 100.679Z" fill="#EDC951"/>
<path fill-rule="evenodd" clip-rule="evenodd" d="M98.628 88.6392H62.141C61.45 88.6392 60.848 88.1672 60.684 87.4962L55.784 67.4962C55.674 67.0482 55.776 66.5762 56.06 66.2132C56.345 65.8512 56.78 65.6392 57.241 65.6392H108.23C108.746 65.6392 109.225 65.9042 109.5 66.3402C109.774 66.7772 109.805 67.3232 109.582 67.7882L99.98 87.7882C99.731 88.3082 99.205 88.6392 98.628 88.6392ZM63.318 85.6392H97.684L105.846 68.6392H59.153L63.318 85.6392Z" fill="#100227"/>
<path fill-rule="evenodd" clip-rule="evenodd" d="M107.796 98.6392H104.296C103.468 98.6392 102.796 97.9682 102.796 97.1392C102.796 96.3102 103.468 95.6392 104.296 95.6392H106.296V88.6392H63.956L65.301 95.6392H67.296C68.125 95.6392 68.796 96.3102 68.796 97.1392C68.796 97.9682 68.125 98.6392 67.296 98.6392H64.061C63.342 98.6392 62.724 98.1282 62.588 97.4222L60.668 87.4222C60.583 86.9822 60.7 86.5282 60.985 86.1842C61.269 85.8392 61.694 85.6392 62.141 85.6392H107.796C108.625 85.6392 109.296 86.3102 109.296 87.1392V97.1392C109.296 97.9682 108.625 98.6392 107.796 98.6392Z" fill="#100227"/>
<path fill-rule="evenodd" clip-rule="evenodd" d="M90.296 98.6392H80.296C79.468 98.6392 78.796 97.9682 78.796 97.1392C78.796 96.3102 79.468 95.6392 80.296 95.6392H90.296C91.125 95.6392 91.796 96.3102 91.796 97.1392C91.796 97.9682 91.125 98.6392 90.296 98.6392Z" fill="#100227"/>
<path fill-rule="evenodd" clip-rule="evenodd" d="M97.38 105.94C93.376 105.94 90.119 102.683 90.119 98.679C90.119 94.675 93.376 91.418 97.38 91.418C101.384 91.418 104.641 94.675 104.641 98.679C104.641 102.683 101.384 105.94 97.38 105.94ZM97.38 94.418C95.031 94.418 93.119 96.329 93.119 98.679C93.119 101.029 95.031 102.94 97.38 102.94C99.73 102.94 101.641 101.029 101.641 98.679C101.641 96.329 99.73 94.418 97.38 94.418Z" fill="#100227"/>
<path fill-rule="evenodd" clip-rule="evenodd" d="M74.287 105.94C70.284 105.94 67.026 102.683 67.026 98.679C67.026 94.675 70.284 91.418 74.287 91.418C78.291 91.418 81.549 94.675 81.549 98.679C81.549 102.683 78.291 105.94 74.287 105.94ZM74.287 94.418C71.938 94.418 70.026 96.329 70.026 98.679C70.026 101.029 71.938 102.94 74.287 102.94C76.637 102.94 78.549 101.029 78.549 98.679C78.549 96.329 76.637 94.418 74.287 94.418Z" fill="#100227"/>
<path fill-rule="evenodd" clip-rule="evenodd" d="M64.06 98.219C63.388 98.219 62.776 97.764 62.606 97.082L53.004 58.59C52.974 58.471 52.959 58.349 52.959 58.227C52.959 57.562 52.285 57 51.488 57C50.653 57 50 57.69 50 58.572C50 59.114 50.266 59.614 50.711 59.909C51.401 60.368 51.589 61.299 51.131 61.989C50.672 62.679 49.741 62.867 49.051 62.408C47.767 61.555 47 60.121 47 58.572C47 56.051 49.013 54 51.488 54C53.881 54 55.841 55.786 55.954 58.022L65.517 96.356C65.717 97.159 65.228 97.973 64.425 98.174C64.303 98.205 64.181 98.219 64.06 98.219Z" fill="#100227"/>
</svg>
