<svg width="160" height="160" viewBox="0 0 160 160" fill="none" xmlns="http://www.w3.org/2000/svg">
<circle cx="80" cy="80" r="80" fill="#F2F8F6"/>
<circle cx="20" cy="20" r="20" fill="#100227"/>
<path d="M15.0148 16.048L19.1668 15.04V28H23.1028V10.888L15.0148 12.496V16.048Z" fill="white"/>
<path fill-rule="evenodd" clip-rule="evenodd" d="M54.844 64.555L67.714 51.675C69.277 50.111 71.81 50.111 73.371 51.675L112.089 90.419C113.651 91.983 113.651 94.517 112.089 96.08L99.218 108.96C96.094 112.087 91.028 112.087 87.904 108.96L54.844 75.876C51.719 72.75 51.719 67.681 54.844 64.555Z" fill="#FD9366"/>
<path fill-rule="evenodd" clip-rule="evenodd" d="M88.562 111.806C86.024 111.806 83.638 110.817 81.844 109.021L48.783 75.937C46.988 74.142 46 71.754 46 69.215C46 66.676 46.988 64.288 48.783 62.492L61.655 49.612C62.693 48.573 64.073 48 65.543 48C67.013 48 68.394 48.573 69.432 49.613L108.15 88.357C110.293 90.503 110.293 93.995 108.15 96.141L95.278 109.021C93.485 110.817 91.099 111.806 88.562 111.806ZM65.543 51.002C64.875 51.002 64.248 51.263 63.776 51.735L50.904 64.616C49.677 65.844 49 67.477 49 69.215C49 70.952 49.677 72.586 50.904 73.814L83.965 106.898C85.193 108.127 86.825 108.804 88.562 108.804C90.297 108.804 91.93 108.127 93.157 106.898L106.029 94.018C107.003 93.043 107.003 91.455 106.029 90.48L67.311 51.735C66.838 51.263 66.211 51.002 65.543 51.002Z" fill="#100227"/>
<path fill-rule="evenodd" clip-rule="evenodd" d="M52.851 79.0659C52.467 79.0659 52.083 78.9189 51.79 78.6259C51.204 78.0399 51.204 77.0889 51.79 76.5029L60.758 67.5289C61.344 66.9429 62.293 66.9429 62.879 67.5289C63.465 68.1159 63.465 69.0659 62.879 69.6519L53.911 78.6259C53.618 78.9189 53.235 79.0659 52.851 79.0659Z" fill="#100227"/>
<path fill-rule="evenodd" clip-rule="evenodd" d="M57.742 83.96C57.359 83.96 56.975 83.814 56.682 83.521C56.096 82.935 56.096 81.984 56.682 81.398L61.573 76.503C62.159 75.917 63.109 75.917 63.694 76.503C64.28 77.089 64.28 78.04 63.694 78.626L58.803 83.521C58.51 83.814 58.126 83.96 57.742 83.96Z" fill="#100227"/>
<path fill-rule="evenodd" clip-rule="evenodd" d="M63.449 89.6709C63.066 89.6709 62.682 89.5239 62.389 89.2319C61.803 88.6449 61.803 87.6949 62.389 87.1089L71.356 78.1349C71.942 77.5489 72.891 77.5489 73.477 78.1339C74.063 78.7209 74.063 79.6709 73.477 80.2569L64.51 89.2319C64.217 89.5239 63.833 89.6709 63.449 89.6709Z" fill="#100227"/>
<path fill-rule="evenodd" clip-rule="evenodd" d="M68.34 94.5658C67.956 94.5658 67.572 94.4188 67.279 94.1258C66.694 93.5398 66.694 92.5888 67.279 92.0038L72.171 87.1088C72.757 86.5228 73.706 86.5218 74.292 87.1088C74.878 87.6948 74.878 88.6448 74.292 89.2318L69.401 94.1258C69.108 94.4188 68.724 94.5658 68.34 94.5658Z" fill="#100227"/>
<path fill-rule="evenodd" clip-rule="evenodd" d="M74.047 100.277C73.663 100.277 73.28 100.13 72.987 99.8368C72.401 99.2508 72.401 98.3008 72.987 97.7138L81.954 88.7398C82.54 88.1538 83.489 88.1538 84.075 88.7398C84.661 89.3258 84.661 90.2768 84.075 90.8628L75.108 99.8368C74.815 100.13 74.431 100.277 74.047 100.277Z" fill="#100227"/>
<path fill-rule="evenodd" clip-rule="evenodd" d="M78.939 105.172C78.555 105.172 78.171 105.025 77.878 104.732C77.292 104.146 77.292 103.195 77.878 102.609L82.77 97.7139C83.356 97.1279 84.305 97.1279 84.891 97.7139C85.477 98.3009 85.477 99.2509 84.891 99.8369L79.999 104.732C79.706 105.025 79.322 105.172 78.939 105.172Z" fill="#100227"/>
</svg>
