<svg width="160" height="160" viewBox="0 0 160 160" fill="none" xmlns="http://www.w3.org/2000/svg">
<circle cx="80" cy="80" r="80" fill="#F2F8F6"/>
<circle cx="20" cy="20" r="20" fill="#100227"/>
<path d="M11.4694 25.048H26.8534V21.568H23.4214L23.0134 22.096H16.8214L20.4454 17.08V23.512L19.9894 23.776V28H24.2134V11.2H21.1894L11.4694 25.048Z" fill="white"/>
<path fill-rule="evenodd" clip-rule="evenodd" d="M95.7928 62H65.6178L59.5468 107.019C59.1238 110.15 61.5588 113 64.7168 113H87.7928" fill="#81BDA4"/>
<path fill-rule="evenodd" clip-rule="evenodd" d="M100.842 113H77.5948L66.1458 62H95.9138L105.931 106.572C106.666 109.834 104.185 113 100.842 113Z" fill="#E56A77"/>
<path fill-rule="evenodd" clip-rule="evenodd" d="M96.8418 111H73.5948C72.8938 111 72.2848 110.513 72.1318 109.829L60.6828 58.829C60.5828 58.384 60.6908 57.918 60.9748 57.562C61.2598 57.207 61.6908 57 62.1458 57H91.9138C92.6158 57 93.2238 57.487 93.3778 58.171L103.395 102.743C103.849 104.76 103.365 106.85 102.065 108.474C100.781 110.079 98.8768 111 96.8418 111ZM74.7958 108H96.8418C97.9608 108 99.0098 107.49 99.7218 106.6C100.449 105.691 100.721 104.525 100.468 103.401L90.7138 60H64.0198L74.7958 108Z" fill="#100227"/>
<path fill-rule="evenodd" clip-rule="evenodd" d="M83.7928 111H60.7178C58.7968 111 56.9638 110.162 55.6858 108.701C54.3908 107.22 53.7988 105.258 54.0608 103.318L60.1318 58.3C60.2318 57.555 60.8668 57 61.6178 57H91.7928C92.6218 57 93.2928 57.671 93.2928 58.5C93.2928 59.329 92.6218 60 91.7928 60H62.9288L57.0328 103.72C56.8878 104.801 57.2198 105.897 57.9448 106.726C58.6628 107.547 59.6478 108 60.7178 108H83.7928C84.6218 108 85.2928 108.671 85.2928 109.5C85.2928 110.329 84.6218 111 83.7928 111Z" fill="#100227"/>
<path fill-rule="evenodd" clip-rule="evenodd" d="M83.2928 59.5C82.4648 59.5 81.7928 58.829 81.7928 58V54.989C81.7928 52.864 80.0448 51 78.0518 51H75.4438C73.4648 51 71.7928 52.827 71.7928 54.989V58C71.7928 58.829 71.1218 59.5 70.2928 59.5C69.4648 59.5 68.7928 58.829 68.7928 58V54.989C68.7928 51.201 71.8388 48 75.4438 48H78.0518C81.7058 48 84.7928 51.201 84.7928 54.989V58C84.7928 58.829 84.1218 59.5 83.2928 59.5Z" fill="#100227"/>
</svg>
