<svg width="160" height="160" viewBox="0 0 160 160" fill="none" xmlns="http://www.w3.org/2000/svg">
<circle cx="80" cy="80" r="80" fill="#F2F8F6"/>
<circle cx="20" cy="20" r="20" fill="#100227"/>
<path d="M11.605 28H25.861V24.28H19.141L23.029 20.752C23.781 20.144 24.373 19.456 24.805 18.688C25.237 17.92 25.453 17.088 25.453 16.192C25.453 15.552 25.317 14.92 25.045 14.296C24.773 13.672 24.365 13.104 23.821 12.592C23.293 12.064 22.629 11.648 21.829 11.344C21.045 11.024 20.133 10.864 19.093 10.864C17.637 10.864 16.413 11.16 15.421 11.752C14.429 12.344 13.685 13.136 13.189 14.128C12.693 15.12 12.445 16.216 12.445 17.416H16.429C16.429 16.808 16.533 16.28 16.741 15.832C16.949 15.384 17.237 15.032 17.605 14.776C17.989 14.504 18.445 14.368 18.973 14.368C19.341 14.368 19.661 14.432 19.933 14.56C20.221 14.672 20.469 14.832 20.677 15.04C20.885 15.232 21.029 15.456 21.109 15.712C21.205 15.952 21.253 16.208 21.253 16.48C21.253 16.912 21.157 17.328 20.965 17.728C20.789 18.112 20.541 18.512 20.221 18.928C19.917 19.328 19.541 19.768 19.093 20.248L11.605 28Z" fill="white"/>
<path fill-rule="evenodd" clip-rule="evenodd" d="M114 93C114 97.418 110.418 101 106 101H62C57.582 101 54 97.418 54 93V71C54 66.582 57.582 63 62 63H106C110.418 63 114 66.582 114 71V93Z" fill="#81BDA4"/>
<path fill-rule="evenodd" clip-rule="evenodd" d="M100.722 63.0239C100.722 63.0239 101 77.5249 114 76.1249V70.9519C114 66.4919 110.416 62.8929 105.956 62.9529L100.722 63.0239Z" fill="#EDC951"/>
<path fill-rule="evenodd" clip-rule="evenodd" d="M67.47 101.395C67.47 101.395 67 86.894 54 88.294V93.4669C54 97.9269 57.68 101.526 62.14 101.466L67.47 101.395Z" fill="#EDC951"/>
<path fill-rule="evenodd" clip-rule="evenodd" d="M100.5 99H56.5C51.262 99 47 94.738 47 89.5V67.5C47 62.262 51.262 58 56.5 58H100.5C105.738 58 110 62.262 110 67.5V89.5C110 94.738 105.738 99 100.5 99ZM56.5 61C52.916 61 50 63.916 50 67.5V89.5C50 93.084 52.916 96 56.5 96H100.5C104.084 96 107 93.084 107 89.5V67.5C107 63.916 104.084 61 100.5 61H56.5Z" fill="#100227"/>
<path fill-rule="evenodd" clip-rule="evenodd" d="M106.783 74.7201C106.782 74.7201 106.782 74.7201 106.782 74.7201C96.677 74.7201 93.657 65.1431 93.473 60.0791C93.458 59.6751 93.606 59.2831 93.885 58.9901C94.163 58.6971 94.548 58.5291 94.952 58.5241L100.44 58.4521C105.712 58.4521 110 62.7141 110 67.9521V73.1251C110 73.8921 109.423 74.5341 108.66 74.6171C108.02 74.6861 107.389 74.7201 106.783 74.7201ZM96.636 61.5021C97.135 64.6961 99.103 71.7201 106.782 71.7201C106.782 71.7201 106.782 71.7201 106.783 71.7201C106.854 71.7201 106.927 71.7201 107 71.7191V67.9521C107 64.3681 104.058 61.4521 100.44 61.4521L96.636 61.5021Z" fill="#100227"/>
<path fill-rule="evenodd" clip-rule="evenodd" d="M56.436 98.8442C51.233 98.8442 47 94.5832 47 89.3442V84.1712C47 83.4052 47.577 82.7622 48.34 82.6802C48.979 82.6112 49.61 82.5762 50.216 82.5762C60.324 82.5762 63.182 92.1702 63.28 97.2432C63.288 97.6432 63.136 98.0292 62.858 98.3152C62.581 98.6022 62.2 98.7672 61.801 98.7722L56.436 98.8442ZM50 85.5782V89.3442C50 92.9282 52.888 95.8442 56.436 95.8442L60.145 95.7942C59.705 92.5882 57.829 85.4592 50 85.5782Z" fill="#100227"/>
<path fill-rule="evenodd" clip-rule="evenodd" d="M80.068 88.5679C74.64 88.5679 70.224 84.1519 70.224 78.7249C70.224 73.2959 74.64 68.8809 80.068 68.8809C81.57 68.8809 83.013 69.2109 84.356 69.8619C85.101 70.2239 85.413 71.1209 85.052 71.8659C84.69 72.6119 83.794 72.9219 83.048 72.5619C82.116 72.1099 81.113 71.8809 80.068 71.8809C76.294 71.8809 73.224 74.9509 73.224 78.7249C73.224 82.4979 76.294 85.5679 80.068 85.5679C81.074 85.5679 82.043 85.3549 82.946 84.9359C83.694 84.5879 84.589 84.9129 84.938 85.6649C85.287 86.4159 84.961 87.3079 84.21 87.6569C82.907 88.2619 81.514 88.5679 80.068 88.5679Z" fill="#100227"/>
</svg>
