<svg width="160" height="40" viewBox="0 0 160 40" fill="none" xmlns="http://www.w3.org/2000/svg">
<g clip-path="url(#clip0)">
<path fill-rule="evenodd" clip-rule="evenodd" d="M2.59863 19.7294H33.0986V17.3799C33.0986 16.8274 33.0871 16.2269 32.5346 16.2269H4.03463C3.48263 16.2269 2.59863 16.8274 2.59863 17.3799V19.7294Z" fill="#A3D12C"/>
<path fill-rule="evenodd" clip-rule="evenodd" d="M2.59863 19.7294V33.7389H5.09863V19.7294H2.59863Z" fill="#A3D12C"/>
<path fill-rule="evenodd" clip-rule="evenodd" d="M30.0986 19.7294V33.7389H33.0986V19.7294H30.0986Z" fill="#A3D12C"/>
<path fill-rule="evenodd" clip-rule="evenodd" d="M19.0986 12.2239H24.0986V14.1374C24.0986 14.9664 23.2316 15.7264 22.4031 15.7264H20.4031C19.5781 15.7264 19.0986 14.9629 19.0986 14.1374V12.2239Z" fill="#88FCE6"/>
<path fill-rule="evenodd" clip-rule="evenodd" d="M23.4649 6.65346C23.4649 6.11696 23.0314 5.68246 22.4974 5.68246C22.3379 5.68246 22.1894 5.72496 22.0569 5.79346C22.0579 5.77396 22.0624 5.75596 22.0624 5.73596C22.0624 5.18946 21.6204 4.74646 21.0759 4.74646C20.5309 4.74646 20.0889 5.18946 20.0889 5.73596C20.0889 5.75946 20.0944 5.78146 20.0959 5.80446C19.9559 5.72896 19.7974 5.68246 19.6274 5.68246C19.0754 5.68246 18.6279 6.13146 18.6279 6.68496C18.6279 7.23096 19.0634 7.67246 19.6039 7.68546C19.4349 7.86346 19.3294 8.10246 19.3294 8.36796C19.3294 8.91496 19.7709 9.35796 20.3159 9.35796C20.6844 9.35796 21.0019 9.15296 21.1709 8.85246C21.3379 9.15246 21.6539 9.35796 22.0209 9.35796C22.5604 9.35796 22.9979 8.91896 22.9979 8.37796C22.9979 8.06596 22.8494 7.79146 22.6234 7.61196C23.0974 7.54946 23.4649 7.14646 23.4649 6.65346Z" fill="#A3D12C"/>
<path fill-rule="evenodd" clip-rule="evenodd" d="M31.3486 19.229H0.848633C0.434633 19.229 0.0986328 18.893 0.0986328 18.4785V16.3795C0.0986328 15.439 1.03763 14.2255 2.03463 14.2255H30.5346C31.5501 14.2255 32.0986 15.335 32.0986 16.3795V18.4785C32.0986 18.893 31.7626 19.229 31.3486 19.229ZM1.59863 17.728H30.5986V16.3795C30.5986 16.1205 30.5111 15.843 30.4371 15.7265H2.03463C1.90263 15.7745 1.60263 16.1925 1.59863 16.38V17.728Z" fill="#100227"/>
<path fill-rule="evenodd" clip-rule="evenodd" d="M3.34863 33.2383H0.848633C0.434633 33.2383 0.0986328 32.9023 0.0986328 32.4878V18.4783C0.0986328 18.0638 0.434633 17.7278 0.848633 17.7278H3.34863C3.76263 17.7278 4.09863 18.0638 4.09863 18.4783V32.4878C4.09863 32.9023 3.76263 33.2383 3.34863 33.2383ZM1.59863 31.7373H2.59863V19.2288H1.59863V31.7373Z" fill="#100227"/>
<path fill-rule="evenodd" clip-rule="evenodd" d="M31.3486 33.2383H28.3486C27.9346 33.2383 27.5986 32.9023 27.5986 32.4878V18.4783C27.5986 18.0638 27.9346 17.7278 28.3486 17.7278H31.3486C31.7626 17.7278 32.0986 18.0638 32.0986 18.4783V32.4878C32.0986 32.9023 31.7626 33.2383 31.3486 33.2383ZM29.0986 31.7373H30.5986V19.2288H29.0986V31.7373Z" fill="#100227"/>
<path fill-rule="evenodd" clip-rule="evenodd" d="M5.36768 16.2269L18.0772 24.8609C19.4627 25.7554 21.2832 25.5224 22.4487 24.3564L30.5347 16.2269H5.36768Z" fill="#FD9366"/>
<path fill-rule="evenodd" clip-rule="evenodd" d="M17.8648 25.0085C17.8648 25.0085 17.8648 25.0085 17.8643 25.0085C17.0803 25.0085 16.3213 24.7865 15.6703 24.3665L2.94232 15.594C2.67182 15.408 2.55432 15.067 2.65132 14.7535C2.74932 14.4395 3.03932 14.2255 3.36782 14.2255H28.5348C28.8373 14.2255 29.1098 14.4075 29.2268 14.687C29.3433 14.966 29.2808 15.2885 29.0683 15.5035L20.9828 23.695C20.1478 24.531 19.0123 25.0085 17.8648 25.0085ZM5.77882 15.7265L16.5028 23.1175C16.8918 23.368 17.3693 23.5075 17.8648 23.5075C18.6173 23.5075 19.3658 23.1905 19.9188 22.637L26.7398 15.7265H5.77882Z" fill="#100227"/>
<path fill-rule="evenodd" clip-rule="evenodd" d="M20.0204 9.10787C19.7169 9.10787 19.4239 9.02637 19.1689 8.87987C18.9124 9.02637 18.6189 9.10787 18.3154 9.10787C17.3579 9.10787 16.5789 8.32687 16.5789 7.36737C16.5789 7.27937 16.5859 7.19187 16.5984 7.10587C16.1594 6.78937 15.8774 6.27287 15.8774 5.68437C15.8774 4.74887 16.6124 3.98187 17.5339 3.93387C17.8239 3.37687 18.4059 2.99487 19.0754 2.99487C19.7454 2.99487 20.3279 3.37737 20.6174 3.93537C21.5084 3.99787 22.2144 4.74387 22.2144 5.65287C22.2144 6.13687 22.0099 6.58087 21.6789 6.89637C21.7239 7.05037 21.7474 7.21187 21.7474 7.37687C21.7474 8.33137 20.9724 9.10787 20.0204 9.10787ZM19.1704 7.22037C19.1714 7.22037 19.1719 7.22037 19.1729 7.22037C19.4444 7.22037 19.6939 7.30937 19.8259 7.54637C19.8414 7.57487 19.9019 7.63637 20.0204 7.63637C20.1454 7.63637 20.2474 7.51837 20.2474 7.39187C20.2474 7.29987 20.1909 7.23387 20.1569 7.20737C19.9209 7.01987 19.8194 6.70537 19.8994 6.41537C19.9804 6.12437 20.2264 5.90887 20.5244 5.86887C20.6329 5.85487 20.7144 5.76137 20.7144 5.65337C20.7144 5.50237 20.5799 5.36387 20.4004 5.45987C20.1614 5.58287 19.8764 5.56987 19.6499 5.42387C19.4244 5.27837 19.2939 5.02337 19.3074 4.75487C19.3079 4.74537 19.3094 4.72937 19.3109 4.71287C19.2994 4.59137 19.1979 4.49587 19.0754 4.49587C18.9534 4.49587 18.8524 4.59037 18.8399 4.71037C18.8414 4.72637 18.8429 4.74087 18.8439 4.75587C18.8609 5.02837 18.7299 5.28887 18.4999 5.43587C18.2709 5.58387 17.9789 5.59437 17.7389 5.46387C17.5449 5.36087 17.3774 5.50937 17.3774 5.68437C17.3774 5.82137 17.4839 5.93137 17.6209 5.93387C17.9179 5.94137 18.1819 6.12287 18.2959 6.39687C18.4099 6.67087 18.3514 6.98637 18.1469 7.20137C18.1159 7.23437 18.0789 7.28937 18.0789 7.36737C18.0789 7.49937 18.1849 7.60687 18.3154 7.60687C18.4384 7.60687 18.5014 7.57187 18.5174 7.54237C18.6504 7.30637 18.8999 7.22037 19.1704 7.22037Z" fill="#100227"/>
<path fill-rule="evenodd" clip-rule="evenodd" d="M19.5816 11.7719C19.3681 11.7719 19.1566 11.6819 19.0081 11.5059C17.6576 9.9069 18.4321 7.6914 18.4656 7.5974C18.6061 7.2074 19.0356 7.0059 19.4251 7.1454C19.8141 7.2849 20.0166 7.7134 19.8781 8.1029C19.8651 8.1404 19.3726 9.6119 20.1536 10.5374C20.4216 10.8539 20.3811 11.3274 20.0651 11.5949C19.9241 11.7139 19.7526 11.7719 19.5816 11.7719Z" fill="#100227"/>
<path fill-rule="evenodd" clip-rule="evenodd" d="M20.4031 15.2264H18.4031C17.0891 15.2264 16.0986 14.3279 16.0986 13.1369V10.9734C16.0986 10.5589 16.4346 10.2229 16.8486 10.2229H21.8486C22.2626 10.2229 22.5986 10.5589 22.5986 10.9734V13.1369C22.5986 14.3474 21.6751 15.2264 20.4031 15.2264ZM17.5986 11.7239V13.1369C17.5986 13.6019 18.1251 13.7249 18.4031 13.7249H20.4031C20.6631 13.7249 21.0986 13.6489 21.0986 13.1369V11.7239H17.5986Z" fill="#100227"/>
</g>
<path d="M45.7461 24.0959L42.9141 26.1119C43.2821 26.9439 43.8101 27.6959 44.4981 28.3679C45.1861 29.0239 45.9941 29.5519 46.9221 29.9519C47.8661 30.3359 48.8821 30.5279 49.9701 30.5279C50.7701 30.5279 51.5381 30.4079 52.2741 30.1679C53.0101 29.9439 53.6741 29.6079 54.2661 29.1599C54.8741 28.7119 55.3461 28.1599 55.6821 27.5039C56.0341 26.8479 56.2101 26.0879 56.2101 25.2239C56.2101 24.5199 56.0901 23.8959 55.8501 23.3519C55.6261 22.7919 55.3141 22.3039 54.9141 21.8879C54.5301 21.4719 54.0741 21.1199 53.5461 20.8319C53.0341 20.5279 52.4821 20.2639 51.8901 20.0399C51.3141 19.8479 50.7941 19.6639 50.3301 19.4879C49.8661 19.2959 49.4741 19.1119 49.1541 18.9359C48.8501 18.7439 48.6101 18.5359 48.4341 18.3119C48.2741 18.0719 48.1941 17.7999 48.1941 17.4959C48.1941 17.2399 48.2581 17.0159 48.3861 16.8239C48.5141 16.6319 48.7061 16.4879 48.9621 16.3919C49.2341 16.2799 49.5701 16.2239 49.9701 16.2239C50.3861 16.2239 50.7781 16.3039 51.1461 16.4639C51.5301 16.6079 51.8821 16.8319 52.2021 17.1359C52.5221 17.4399 52.7941 17.7919 53.0181 18.1919L56.1141 16.4639C55.8261 15.8879 55.4101 15.3199 54.8661 14.7599C54.3221 14.1999 53.6421 13.7359 52.8261 13.3679C52.0101 12.9999 51.0341 12.8159 49.8981 12.8159C48.8261 12.8159 47.8421 13.0079 46.9461 13.3919C46.0501 13.7759 45.3381 14.3279 44.8101 15.0479C44.2981 15.7519 44.0421 16.6079 44.0421 17.6159C44.0421 18.4479 44.1941 19.1519 44.4981 19.7279C44.8181 20.2879 45.2101 20.7759 45.6741 21.1919C46.1381 21.5919 46.6261 21.9199 47.1381 22.1759C47.6501 22.4319 48.1141 22.6399 48.5301 22.7999C49.3461 23.1199 49.9941 23.3999 50.4741 23.6399C50.9701 23.8639 51.3221 24.1119 51.5301 24.3839C51.7541 24.6559 51.8661 24.9999 51.8661 25.4159C51.8661 25.7519 51.7781 26.0479 51.6021 26.3039C51.4421 26.5439 51.2101 26.7359 50.9061 26.8799C50.6021 27.0079 50.2501 27.0719 49.8501 27.0719C49.2901 27.0719 48.7541 26.9519 48.2421 26.7119C47.7461 26.4719 47.2901 26.1279 46.8741 25.6799C46.4581 25.2319 46.0821 24.7039 45.7461 24.0959Z" fill="#100227"/>
<path d="M56.2815 18.9599V21.9599H63.6735V18.9599H56.2815ZM58.2255 15.1199V29.9999H61.7295V15.1199H58.2255Z" fill="#100227"/>
<path d="M63.6101 24.4799C63.6101 25.6319 63.8821 26.6399 64.4261 27.5039C64.9861 28.3679 65.7381 29.0399 66.6821 29.5199C67.6421 29.9999 68.7221 30.2399 69.9221 30.2399C71.1381 30.2399 72.2181 29.9999 73.1621 29.5199C74.1061 29.0399 74.8501 28.3679 75.3941 27.5039C75.9541 26.6399 76.2341 25.6319 76.2341 24.4799C76.2341 23.3119 75.9541 22.2959 75.3941 21.4319C74.8501 20.5679 74.1061 19.8959 73.1621 19.4159C72.2181 18.9359 71.1461 18.6959 69.9461 18.6959C68.7461 18.6959 67.6661 18.9359 66.7061 19.4159C65.7461 19.8959 64.9861 20.5679 64.4261 21.4319C63.8821 22.2959 63.6101 23.3119 63.6101 24.4799ZM67.3541 24.4799C67.3541 23.9039 67.4661 23.4079 67.6901 22.9919C67.9301 22.5759 68.2421 22.2559 68.6261 22.0319C69.0261 21.8079 69.4581 21.6959 69.9221 21.6959C70.4021 21.6959 70.8341 21.8079 71.2181 22.0319C71.6021 22.2559 71.9061 22.5759 72.1301 22.9919C72.3541 23.4079 72.4661 23.9039 72.4661 24.4799C72.4661 25.0399 72.3541 25.5279 72.1301 25.9439C71.9061 26.3599 71.6021 26.6799 71.2181 26.9039C70.8341 27.1279 70.4021 27.2399 69.9221 27.2399C69.4581 27.2399 69.0261 27.1279 68.6261 26.9039C68.2421 26.6799 67.9301 26.3599 67.6901 25.9439C67.4661 25.5119 67.3541 25.0239 67.3541 24.4799Z" fill="#100227"/>
<path d="M77.4069 11.2799V29.9999H81.0789V11.2799H77.4069Z" fill="#100227"/>
<path d="M83.5397 25.9919L82.0277 28.3919C82.5237 28.7759 83.0597 29.1279 83.6357 29.4479C84.2117 29.7519 84.8357 29.9919 85.5077 30.1679C86.1957 30.3599 86.9397 30.4559 87.7397 30.4559C88.6197 30.4559 89.3637 30.3199 89.9717 30.0479C90.5957 29.7759 91.0677 29.3759 91.3877 28.8479C91.7237 28.3199 91.8917 27.6639 91.8917 26.8799C91.8917 26.1919 91.7397 25.6399 91.4357 25.2239C91.1477 24.8079 90.7637 24.4639 90.2837 24.1919C89.8197 23.9199 89.2917 23.6799 88.6997 23.4719C88.1557 23.2639 87.6917 23.0959 87.3077 22.9679C86.9397 22.8239 86.6517 22.6719 86.4437 22.5119C86.2517 22.3519 86.1557 22.1519 86.1557 21.9119C86.1557 21.7039 86.2437 21.5359 86.4197 21.4079C86.5957 21.2799 86.8357 21.2159 87.1397 21.2159C87.6357 21.2159 88.1877 21.3599 88.7957 21.6479C89.4037 21.9359 89.9237 22.2959 90.3557 22.7279L91.6517 20.3519C91.2357 20.0319 90.7797 19.7519 90.2837 19.5119C89.8037 19.2719 89.2837 19.0799 88.7237 18.9359C88.1797 18.7919 87.5797 18.7199 86.9237 18.7199C86.1397 18.7199 85.4357 18.8399 84.8117 19.0799C84.1877 19.3199 83.6917 19.6719 83.3237 20.1359C82.9717 20.5999 82.7957 21.1679 82.7957 21.8399C82.7957 22.5439 82.9477 23.1199 83.2517 23.5679C83.5557 24.0159 83.9477 24.3759 84.4277 24.6479C84.9237 24.9199 85.4197 25.1519 85.9157 25.3439C86.5237 25.5199 86.9957 25.6879 87.3317 25.8479C87.6677 25.9919 87.9077 26.1519 88.0517 26.3279C88.1957 26.4879 88.2677 26.6799 88.2677 26.9039C88.2677 27.1759 88.1797 27.3919 88.0037 27.5519C87.8277 27.7119 87.5557 27.7919 87.1877 27.7919C86.9317 27.7919 86.6277 27.7439 86.2757 27.6479C85.9237 27.5359 85.5157 27.3519 85.0517 27.0959C84.6037 26.8239 84.0997 26.4559 83.5397 25.9919Z" fill="#100227"/>
<path d="M91.629 18.9599V21.9599H99.021V18.9599H91.629ZM93.573 15.1199V29.9999H97.077V15.1199H93.573Z" fill="#100227"/>
<path d="M110.934 18.9599H107.19L103.662 27.7919L105.534 27.8159L101.982 18.9599H97.9736L102.75 29.1119L100.086 35.2799H103.734L110.934 18.9599Z" fill="#100227"/>
<path d="M111.137 11.2799V29.9999H114.809V11.2799H111.137Z" fill="#100227"/>
<path d="M122.31 30.2399C123.718 30.2399 124.91 29.9679 125.886 29.4239C126.862 28.8799 127.646 28.0639 128.238 26.9759L124.974 26.1839C124.718 26.6639 124.358 27.0239 123.894 27.2639C123.43 27.5039 122.878 27.6239 122.238 27.6239C121.694 27.6239 121.222 27.4959 120.822 27.2399C120.438 26.9839 120.15 26.6239 119.958 26.1599C119.766 25.6799 119.678 25.1039 119.694 24.4319C119.694 23.8719 119.742 23.3919 119.838 22.9919C119.95 22.5759 120.11 22.2319 120.318 21.9599C120.526 21.6879 120.782 21.4879 121.086 21.3599C121.406 21.2159 121.774 21.1439 122.19 21.1439C122.606 21.1439 122.974 21.2399 123.294 21.4319C123.63 21.6239 123.878 21.8959 124.038 22.2479C124.198 22.5839 124.278 22.9999 124.278 23.4959C124.278 23.6079 124.254 23.7439 124.206 23.9039C124.158 24.0479 124.094 24.1919 124.014 24.3359L124.878 23.2319H118.062V25.2479H128.166C128.182 25.1199 128.19 24.9759 128.19 24.8159C128.19 24.6559 128.19 24.4879 128.19 24.3119C128.19 23.1279 127.958 22.1199 127.494 21.2879C127.03 20.4559 126.358 19.8239 125.478 19.3919C124.598 18.9439 123.518 18.7199 122.238 18.7199C121.278 18.7199 120.414 18.8559 119.646 19.1279C118.878 19.3839 118.222 19.7599 117.678 20.2559C117.134 20.7519 116.718 21.3599 116.43 22.0799C116.158 22.7839 116.022 23.5839 116.022 24.4799C116.022 25.6479 116.278 26.6639 116.79 27.5279C117.302 28.3919 118.022 29.0639 118.95 29.5439C119.894 30.0079 121.014 30.2399 122.31 30.2399Z" fill="#100227"/>
<path d="M128.465 28.3919C128.465 28.9839 128.673 29.4959 129.089 29.9279C129.521 30.3599 130.064 30.5759 130.72 30.5759C131.376 30.5759 131.921 30.3599 132.353 29.9279C132.785 29.4959 133 28.9839 133 28.3919C133 27.7679 132.785 27.2399 132.353 26.8079C131.921 26.3599 131.376 26.1359 130.72 26.1359C130.064 26.1359 129.521 26.3599 129.089 26.8079C128.673 27.2399 128.465 27.7679 128.465 28.3919Z" fill="#100227"/>
<path d="M138.647 11.2799H135.023V29.9999H138.647V11.2799ZM147.671 24.4799C147.671 23.2319 147.415 22.1839 146.903 21.3359C146.407 20.4719 145.759 19.8239 144.959 19.3919C144.159 18.9439 143.311 18.7199 142.415 18.7199C141.727 18.7199 141.095 18.8559 140.519 19.1279C139.943 19.3839 139.439 19.7599 139.007 20.2559C138.591 20.7519 138.255 21.3599 137.999 22.0799C137.759 22.7839 137.639 23.5839 137.639 24.4799C137.639 25.3759 137.759 26.1839 137.999 26.9039C138.239 27.6079 138.567 28.2079 138.983 28.7039C139.415 29.1999 139.919 29.5839 140.495 29.8559C141.087 30.1119 141.727 30.2399 142.415 30.2399C143.311 30.2399 144.159 30.0239 144.959 29.5919C145.759 29.1439 146.407 28.4879 146.903 27.6239C147.415 26.7599 147.671 25.7119 147.671 24.4799ZM143.831 24.4799C143.831 25.0559 143.711 25.5599 143.471 25.9919C143.231 26.4079 142.911 26.7359 142.511 26.9759C142.127 27.1999 141.695 27.3119 141.215 27.3119C140.911 27.3119 140.607 27.2479 140.303 27.1199C139.999 26.9919 139.719 26.8079 139.463 26.5679C139.223 26.3279 139.023 26.0319 138.863 25.6799C138.719 25.3279 138.647 24.9279 138.647 24.4799C138.647 24.0319 138.719 23.6319 138.863 23.2799C139.007 22.9279 139.207 22.6319 139.463 22.3919C139.719 22.1519 139.999 21.9679 140.303 21.8399C140.607 21.7119 140.911 21.6479 141.215 21.6479C141.695 21.6479 142.127 21.7679 142.511 22.0079C142.911 22.2319 143.231 22.5599 143.471 22.9919C143.711 23.4079 143.831 23.9039 143.831 24.4799Z" fill="#100227"/>
<path d="M159.876 18.9599H156.132L152.604 27.7919L154.476 27.8159L150.924 18.9599H146.916L151.692 29.1119L149.028 35.2799H152.676L159.876 18.9599Z" fill="#100227"/>
<defs>
<clipPath id="clip0">
<rect width="33" height="31" fill="white" transform="translate(0.0976562 3)"/>
</clipPath>
</defs>
</svg>
