<svg width="150" height="150" viewBox="0 0 150 150" fill="none" xmlns="http://www.w3.org/2000/svg">
<circle cx="86.7855" cy="88.9286" r="58.9286" fill="#FD9366"/>
<path fill-rule="evenodd" clip-rule="evenodd" d="M49.8485 76.634C51.313 75.1696 53.6873 75.1696 55.1518 76.634L67.5001 88.9824L99.1342 57.3483C100.599 55.8839 102.973 55.8839 104.438 57.3483C105.902 58.8128 105.902 61.1872 104.438 62.6516L70.1518 96.9373C68.6873 98.4018 66.313 98.4018 64.8485 96.9373L49.8485 81.9373C48.384 80.4729 48.384 78.0985 49.8485 76.634Z" fill="#100227"/>
<path fill-rule="evenodd" clip-rule="evenodd" d="M73.9287 143.571C36.7094 143.571 6.42871 113.291 6.42871 76.0714C6.42871 38.8521 36.7094 8.57141 73.9287 8.57141C111.148 8.57141 141.429 38.8521 141.429 76.0714C141.429 113.291 111.148 143.571 73.9287 143.571ZM73.9287 15C40.2537 15 12.8573 42.3964 12.8573 76.0714C12.8573 109.746 40.2537 137.143 73.9287 137.143C107.604 137.143 135 109.746 135 76.0714C135 42.3964 107.604 15 73.9287 15Z" fill="#100227"/>
</svg>
